<?xml version="1.0" standalone="no"?>
<!DOCTYPE svg PUBLIC "-//W3C//DTD SVG 20010904//EN"
 "http://www.w3.org/TR/2001/REC-SVG-20010904/DTD/svg10.dtd">
<svg version="1.0" xmlns="http://www.w3.org/2000/svg"
 width="180.000000pt" height="180.000000pt" viewBox="0 0 180.000000 180.000000"
 preserveAspectRatio="xMidYMid meet">
<metadata>
Created by potrace 1.11, written by Peter Selinger 2001-2013
</metadata>
<g transform="translate(0.000000,180.000000) scale(0.100000,-0.100000)"
fill="#000000" stroke="none">
<path d="M765 1790 c-59 -9 -153 -36 -204 -58 -20 -9 -38 -16 -41 -17 -41 -8
-184 -109 -255 -180 -111 -112 -185 -237 -231 -396 -25 -84 -28 -110 -28 -239
0 -120 4 -159 23 -225 110 -390 431 -651 826 -671 101 -5 166 2 291 30 39 8
159 59 186 77 14 11 29 19 34 19 15 0 122 86 180 146 105 107 174 227 220 380
24 79 27 106 27 239 1 128 -3 162 -23 234 -45 163 -128 302 -248 419 -68 65
-175 142 -198 142 -8 0 -14 5 -14 10 0 6 -7 10 -15 10 -8 0 -29 8 -47 18 -29
16 -115 44 -181 58 -41 9 -252 12 -302 4z"/>
</g>
</svg>
